solid OpenSCAD_Model
  facet normal -0 0 1
    outer loop
      vertex 43.65 -11.45 -10.5
      vertex 44.3 -26.75 -10.5
      vertex 44.3 -11.45 -10.5
    endloop
  endfacet
  facet normal 0 0 1
    outer loop
      vertex 44.3 -26.75 -10.5
      vertex 43.65 -11.45 -10.5
      vertex 43.65 -26.75 -10.5
    endloop
  endfacet
  facet normal 0 1 -0
    outer loop
      vertex 44.3 -26.75 -10.5
      vertex 43.65 -26.75 12.1
      vertex 44.3 -26.75 12.1
    endloop
  endfacet
  facet normal 0 1 0
    outer loop
      vertex 43.65 -26.75 12.1
      vertex 44.3 -26.75 -10.5
      vertex 43.65 -26.75 -10.5
    endloop
  endfacet
  facet normal 0 -1 0
    outer loop
      vertex 43.65 -11.45 -10.5
      vertex 44.3 -11.45 12.1
      vertex 43.65 -11.45 12.1
    endloop
  endfacet
  facet normal 0 -1 -0
    outer loop
      vertex 44.3 -11.45 12.1
      vertex 43.65 -11.45 -10.5
      vertex 44.3 -11.45 -10.5
    endloop
  endfacet
  facet normal 0 -1 0
    outer loop
      vertex 43.65 6.05 -10.5
      vertex 44.3 6.05 12.1
      vertex 43.65 6.05 12.1
    endloop
  endfacet
  facet normal 0 -1 -0
    outer loop
      vertex 44.3 6.05 12.1
      vertex 43.65 6.05 -10.5
      vertex 44.3 6.05 -10.5
    endloop
  endfacet
  facet normal -0 0 1
    outer loop
      vertex 43.65 6.05 -10.5
      vertex 44.3 -9.25 -10.5
      vertex 44.3 6.05 -10.5
    endloop
  endfacet
  facet normal 0 0 1
    outer loop
      vertex 44.3 -9.25 -10.5
      vertex 43.65 6.05 -10.5
      vertex 43.65 -9.25 -10.5
    endloop
  endfacet
  facet normal 0 1 -0
    outer loop
      vertex 44.3 -9.25 -10.5
      vertex 43.65 -9.25 12.1
      vertex 44.3 -9.25 12.1
    endloop
  endfacet
  facet normal 0 1 0
    outer loop
      vertex 43.65 -9.25 12.1
      vertex 44.3 -9.25 -10.5
      vertex 43.65 -9.25 -10.5
    endloop
  endfacet
  facet normal 0 -1 0
    outer loop
      vertex 43.65 26.25 -10.5
      vertex 44.3 26.25 12.1
      vertex 43.65 26.25 12.1
    endloop
  endfacet
  facet normal 0 -1 -0
    outer loop
      vertex 44.3 26.25 12.1
      vertex 43.65 26.25 -10.5
      vertex 44.3 26.25 -10.5
    endloop
  endfacet
  facet normal -0 0 1
    outer loop
      vertex 43.65 26.25 -10.5
      vertex 44.3 9.25 -10.5
      vertex 44.3 26.25 -10.5
    endloop
  endfacet
  facet normal 0 0 1
    outer loop
      vertex 44.3 9.25 -10.5
      vertex 43.65 26.25 -10.5
      vertex 43.65 9.25 -10.5
    endloop
  endfacet
  facet normal 0 1 -0
    outer loop
      vertex 44.3 9.25 -10.5
      vertex 43.65 9.25 12.1
      vertex 44.3 9.25 12.1
    endloop
  endfacet
  facet normal 0 1 0
    outer loop
      vertex 43.65 9.25 12.1
      vertex 44.3 9.25 -10.5
      vertex 43.65 9.25 -10.5
    endloop
  endfacet
  facet normal 1 -0 0
    outer loop
      vertex -35 -29.7 12.1
      vertex -35 -28.95 -10.5
      vertex -35 -28.95 12.1
    endloop
  endfacet
  facet normal 1 0 0
    outer loop
      vertex -35 -28.95 -10.5
      vertex -35 -29.7 12.1
      vertex -35 -29.7 -10.5
    endloop
  endfacet
  facet normal -1 0 0
    outer loop
      vertex -25 -29.7 -10.5
      vertex -25 -28.95 12.1
      vertex -25 -28.95 -10.5
    endloop
  endfacet
  facet normal -1 -0 0
    outer loop
      vertex -25 -28.95 12.1
      vertex -25 -29.7 -10.5
      vertex -25 -29.7 12.1
    endloop
  endfacet
  facet normal -0 0 1
    outer loop
      vertex -35 -28.95 -10.5
      vertex -25 -29.7 -10.5
      vertex -25 -28.95 -10.5
    endloop
  endfacet
  facet normal 0 0 1
    outer loop
      vertex -25 -29.7 -10.5
      vertex -35 -28.95 -10.5
      vertex -35 -29.7 -10.5
    endloop
  endfacet
  facet normal 1 -0 0
    outer loop
      vertex -19.8 -29.7 12.1
      vertex -19.8 -28.95 -10.5
      vertex -19.8 -28.95 12.1
    endloop
  endfacet
  facet normal 1 0 0
    outer loop
      vertex -19.8 -28.95 -10.5
      vertex -19.8 -29.7 12.1
      vertex -19.8 -29.7 -10.5
    endloop
  endfacet
  facet normal -1 0 0
    outer loop
      vertex -12.8 -29.7 -10.5
      vertex -12.8 -28.95 12.1
      vertex -12.8 -28.95 -10.5
    endloop
  endfacet
  facet normal -1 -0 0
    outer loop
      vertex -12.8 -28.95 12.1
      vertex -12.8 -29.7 -10.5
      vertex -12.8 -29.7 12.1
    endloop
  endfacet
  facet normal -0 0 1
    outer loop
      vertex -19.8 -28.95 -10.5
      vertex -12.8 -29.7 -10.5
      vertex -12.8 -28.95 -10.5
    endloop
  endfacet
  facet normal 0 0 1
    outer loop
      vertex -12.8 -29.7 -10.5
      vertex -19.8 -28.95 -10.5
      vertex -19.8 -29.7 -10.5
    endloop
  endfacet
  facet normal 1 -0 0
    outer loop
      vertex -6.3 -29.7 12.1
      vertex -6.3 -28.95 -10.5
      vertex -6.3 -28.95 12.1
    endloop
  endfacet
  facet normal 1 0 0
    outer loop
      vertex -6.3 -28.95 -10.5
      vertex -6.3 -29.7 12.1
      vertex -6.3 -29.7 -10.5
    endloop
  endfacet
  facet normal -1 0 0
    outer loop
      vertex 0.7 -29.7 -10.5
      vertex 0.7 -28.95 12.1
      vertex 0.7 -28.95 -10.5
    endloop
  endfacet
  facet normal -1 -0 0
    outer loop
      vertex 0.7 -28.95 12.1
      vertex 0.7 -29.7 -10.5
      vertex 0.7 -29.7 12.1
    endloop
  endfacet
  facet normal -0 0 1
    outer loop
      vertex -6.3 -28.95 -10.5
      vertex 0.7 -29.7 -10.5
      vertex 0.7 -28.95 -10.5
    endloop
  endfacet
  facet normal 0 0 1
    outer loop
      vertex 0.7 -29.7 -10.5
      vertex -6.3 -28.95 -10.5
      vertex -6.3 -29.7 -10.5
    endloop
  endfacet
  facet normal 1 -0 0
    outer loop
      vertex 8.2 -29.7 12.1
      vertex 8.2 -28.95 -10.5
      vertex 8.2 -28.95 12.1
    endloop
  endfacet
  facet normal 1 0 0
    outer loop
      vertex 8.2 -28.95 -10.5
      vertex 8.2 -29.7 12.1
      vertex 8.2 -29.7 -10.5
    endloop
  endfacet
  facet normal -1 0 0
    outer loop
      vertex 17.2 -29.7 -10.5
      vertex 17.2 -28.95 12.1
      vertex 17.2 -28.95 -10.5
    endloop
  endfacet
  facet normal -1 -0 0
    outer loop
      vertex 17.2 -28.95 12.1
      vertex 17.2 -29.7 -10.5
      vertex 17.2 -29.7 12.1
    endloop
  endfacet
  facet normal -0 0 1
    outer loop
      vertex 8.2 -28.95 -10.5
      vertex 17.2 -29.7 -10.5
      vertex 17.2 -28.95 -10.5
    endloop
  endfacet
  facet normal 0 0 1
    outer loop
      vertex 17.2 -29.7 -10.5
      vertex 8.2 -28.95 -10.5
      vertex 8.2 -29.7 -10.5
    endloop
  endfacet
  facet normal -1 0 0
    outer loop
      vertex -44.3 10.6 -7.8
      vertex -44.3 29.7 -12.1
      vertex -44.3 10.6 -10.8
    endloop
  endfacet
  facet normal -1 0 0
    outer loop
      vertex -44.3 29.7 -12.1
      vertex -44.3 -10.6 -10.8
      vertex -44.3 10.6 -10.8
    endloop
  endfacet
  facet normal -1 -0 0
    outer loop
      vertex -44.3 -10.6 -10.8
      vertex -44.3 -29.7 -12.1
      vertex -44.3 -10.6 -7.8
    endloop
  endfacet
  facet normal -1 0 0
    outer loop
      vertex -44.3 -29.7 -12.1
      vertex -44.3 -10.6 -10.8
      vertex -44.3 29.7 -12.1
    endloop
  endfacet
  facet normal -1 0 0
    outer loop
      vertex -44.3 29.7 -12.1
      vertex -44.3 10.6 -7.8
      vertex -44.3 29.7 12.1
    endloop
  endfacet
  facet normal -1 0 0
    outer loop
      vertex -44.3 -10.6 -7.8
      vertex -44.3 29.7 12.1
      vertex -44.3 10.6 -7.8
    endloop
  endfacet
  facet normal -1 0 0
    outer loop
      vertex -44.3 -29.7 12.1
      vertex -44.3 -10.6 -7.8
      vertex -44.3 -29.7 -12.1
    endloop
  endfacet
  facet normal -1 0 0
    outer loop
      vertex -44.3 -10.6 -7.8
      vertex -44.3 -29.7 12.1
      vertex -44.3 29.7 12.1
    endloop
  endfacet
  facet normal 0 0 1
    outer loop
      vertex 43.65 -28.95 12.1
      vertex 44.3 -26.75 12.1
      vertex 43.65 -26.75 12.1
    endloop
  endfacet
  facet normal 0 0 1
    outer loop
      vertex 44.3 -26.75 12.1
      vertex 43.65 -28.95 12.1
      vertex 44.3 -29.7 12.1
    endloop
  endfacet
  facet normal 0 0 1
    outer loop
      vertex 17.2 -29.7 12.1
      vertex 43.65 -28.95 12.1
      vertex 17.2 -28.95 12.1
    endloop
  endfacet
  facet normal 0 0 1
    outer loop
      vertex 43.65 -28.95 12.1
      vertex 17.2 -29.7 12.1
      vertex 44.3 -29.7 12.1
    endloop
  endfacet
  facet normal 0 0 1
    outer loop
      vertex 44.3 29.7 12.1
      vertex 43.65 28.95 12.1
      vertex 44.3 26.25 12.1
    endloop
  endfacet
  facet normal 0 0 1
    outer loop
      vertex 44.3 29.7 12.1
      vertex -41.75 28.95 12.1
      vertex 43.65 28.95 12.1
    endloop
  endfacet
  facet normal 0 0 1
    outer loop
      vertex -41.75 28.95 12.1
      vertex -43.35 10.6 12.1
      vertex -41.75 10.6 12.1
    endloop
  endfacet
  facet normal 0 0 1
    outer loop
      vertex -43.35 10.6 12.1
      vertex -44.3 29.7 12.1
      vertex -43.35 -10.6 12.1
    endloop
  endfacet
  facet normal 0 0 1
    outer loop
      vertex -41.75 28.95 12.1
      vertex -44.3 29.7 12.1
      vertex -43.35 10.6 12.1
    endloop
  endfacet
  facet normal -0 0 1
    outer loop
      vertex -44.3 29.7 12.1
      vertex -41.75 28.95 12.1
      vertex 44.3 29.7 12.1
    endloop
  endfacet
  facet normal 0 0 1
    outer loop
      vertex 44.3 26.25 12.1
      vertex 43.65 28.95 12.1
      vertex 43.65 26.25 12.1
    endloop
  endfacet
  facet normal 0 0 1
    outer loop
      vertex -41.75 -10.6 12.1
      vertex -43.35 -10.6 12.1
      vertex -41.75 -28.95 12.1
    endloop
  endfacet
  facet normal -0 0 1
    outer loop
      vertex -41.75 -28.95 12.1
      vertex -35 -29.7 12.1
      vertex -35 -28.95 12.1
    endloop
  endfacet
  facet normal 0 0 1
    outer loop
      vertex -41.75 -28.95 12.1
      vertex -44.3 -29.7 12.1
      vertex -35 -29.7 12.1
    endloop
  endfacet
  facet normal 0 0 1
    outer loop
      vertex -43.35 -10.6 12.1
      vertex -44.3 -29.7 12.1
      vertex -41.75 -28.95 12.1
    endloop
  endfacet
  facet normal 0 0 1
    outer loop
      vertex -44.3 -29.7 12.1
      vertex -43.35 -10.6 12.1
      vertex -44.3 29.7 12.1
    endloop
  endfacet
  facet normal -0 0 1
    outer loop
      vertex 43.65 -9.25 12.1
      vertex 44.3 -11.45 12.1
      vertex 44.3 -9.25 12.1
    endloop
  endfacet
  facet normal 0 0 1
    outer loop
      vertex 44.3 -11.45 12.1
      vertex 43.65 -9.25 12.1
      vertex 43.65 -11.45 12.1
    endloop
  endfacet
  facet normal -0 0 1
    outer loop
      vertex 43.65 9.25 12.1
      vertex 44.3 6.05 12.1
      vertex 44.3 9.25 12.1
    endloop
  endfacet
  facet normal 0 0 1
    outer loop
      vertex 44.3 6.05 12.1
      vertex 43.65 9.25 12.1
      vertex 43.65 6.05 12.1
    endloop
  endfacet
  facet normal -0 0 1
    outer loop
      vertex -25 -28.95 12.1
      vertex -19.8 -29.7 12.1
      vertex -19.8 -28.95 12.1
    endloop
  endfacet
  facet normal 0 0 1
    outer loop
      vertex -19.8 -29.7 12.1
      vertex -25 -28.95 12.1
      vertex -25 -29.7 12.1
    endloop
  endfacet
  facet normal -0 0 1
    outer loop
      vertex -12.8 -28.95 12.1
      vertex -6.3 -29.7 12.1
      vertex -6.3 -28.95 12.1
    endloop
  endfacet
  facet normal 0 0 1
    outer loop
      vertex -6.3 -29.7 12.1
      vertex -12.8 -28.95 12.1
      vertex -12.8 -29.7 12.1
    endloop
  endfacet
  facet normal -0 0 1
    outer loop
      vertex 0.7 -28.95 12.1
      vertex 8.2 -29.7 12.1
      vertex 8.2 -28.95 12.1
    endloop
  endfacet
  facet normal 0 0 1
    outer loop
      vertex 8.2 -29.7 12.1
      vertex 0.7 -28.95 12.1
      vertex 0.7 -29.7 12.1
    endloop
  endfacet
  facet normal 1 0 0
    outer loop
      vertex 44.3 -26.75 12.1
      vertex 44.3 -29.7 12.1
      vertex 44.3 -26.75 -10.5
    endloop
  endfacet
  facet normal 1 0 0
    outer loop
      vertex 44.3 -9.25 12.1
      vertex 44.3 -11.45 12.1
      vertex 44.3 -9.25 -10.5
    endloop
  endfacet
  facet normal 1 0 0
    outer loop
      vertex 44.3 9.25 12.1
      vertex 44.3 6.05 12.1
      vertex 44.3 9.25 -10.5
    endloop
  endfacet
  facet normal 1 0 0
    outer loop
      vertex 44.3 26.25 -10.5
      vertex 44.3 29.7 12.1
      vertex 44.3 26.25 12.1
    endloop
  endfacet
  facet normal 1 0 0
    outer loop
      vertex 44.3 29.7 12.1
      vertex 44.3 26.25 -10.5
      vertex 44.3 29.7 -12.1
    endloop
  endfacet
  facet normal 1 -0 0
    outer loop
      vertex 44.3 9.25 -10.5
      vertex 44.3 29.7 -12.1
      vertex 44.3 26.25 -10.5
    endloop
  endfacet
  facet normal 1 0 0
    outer loop
      vertex 44.3 6.05 -10.5
      vertex 44.3 9.25 -10.5
      vertex 44.3 6.05 12.1
    endloop
  endfacet
  facet normal 1 -0 0
    outer loop
      vertex 44.3 6.05 -10.5
      vertex 44.3 29.7 -12.1
      vertex 44.3 9.25 -10.5
    endloop
  endfacet
  facet normal 1 0 0
    outer loop
      vertex 44.3 -29.7 -12.1
      vertex 44.3 6.05 -10.5
      vertex 44.3 -9.25 -10.5
    endloop
  endfacet
  facet normal 1 0 0
    outer loop
      vertex 44.3 -11.45 -10.5
      vertex 44.3 -9.25 -10.5
      vertex 44.3 -11.45 12.1
    endloop
  endfacet
  facet normal 1 0 0
    outer loop
      vertex 44.3 -29.7 -12.1
      vertex 44.3 -9.25 -10.5
      vertex 44.3 -11.45 -10.5
    endloop
  endfacet
  facet normal 1 0 0
    outer loop
      vertex 44.3 -29.7 -12.1
      vertex 44.3 -11.45 -10.5
      vertex 44.3 -26.75 -10.5
    endloop
  endfacet
  facet normal 1 0 0
    outer loop
      vertex 44.3 6.05 -10.5
      vertex 44.3 -29.7 -12.1
      vertex 44.3 29.7 -12.1
    endloop
  endfacet
  facet normal 1 0 0
    outer loop
      vertex 44.3 -29.7 -12.1
      vertex 44.3 -26.75 -10.5
      vertex 44.3 -29.7 12.1
    endloop
  endfacet
  facet normal 0 1 -0
    outer loop
      vertex 44.3 29.7 -12.1
      vertex -44.3 29.7 12.1
      vertex 44.3 29.7 12.1
    endloop
  endfacet
  facet normal 0 1 0
    outer loop
      vertex -44.3 29.7 12.1
      vertex 44.3 29.7 -12.1
      vertex -44.3 29.7 -12.1
    endloop
  endfacet
  facet normal 0 0 -1
    outer loop
      vertex -44.3 -29.7 -12.1
      vertex 44.3 29.7 -12.1
      vertex 44.3 -29.7 -12.1
    endloop
  endfacet
  facet normal -0 0 -1
    outer loop
      vertex 44.3 29.7 -12.1
      vertex -44.3 -29.7 -12.1
      vertex -44.3 29.7 -12.1
    endloop
  endfacet
  facet normal 0 -1 0
    outer loop
      vertex -44.3 -29.7 12.1
      vertex -35 -29.7 -10.5
      vertex -35 -29.7 12.1
    endloop
  endfacet
  facet normal 0 -1 0
    outer loop
      vertex -44.3 -29.7 -12.1
      vertex -25 -29.7 -10.5
      vertex -35 -29.7 -10.5
    endloop
  endfacet
  facet normal 0 -1 -0
    outer loop
      vertex -25 -29.7 -10.5
      vertex -44.3 -29.7 -12.1
      vertex -19.8 -29.7 -10.5
    endloop
  endfacet
  facet normal 0 -1 -0
    outer loop
      vertex -19.8 -29.7 -10.5
      vertex -44.3 -29.7 -12.1
      vertex -12.8 -29.7 -10.5
    endloop
  endfacet
  facet normal 0 -1 -0
    outer loop
      vertex -12.8 -29.7 -10.5
      vertex -44.3 -29.7 -12.1
      vertex -6.3 -29.7 -10.5
    endloop
  endfacet
  facet normal 0 -1 -0
    outer loop
      vertex -6.3 -29.7 -10.5
      vertex -44.3 -29.7 -12.1
      vertex 0.7 -29.7 -10.5
    endloop
  endfacet
  facet normal 0 -1 -0
    outer loop
      vertex 0.7 -29.7 -10.5
      vertex -44.3 -29.7 -12.1
      vertex 8.2 -29.7 -10.5
    endloop
  endfacet
  facet normal 0 -1 0
    outer loop
      vertex 44.3 -29.7 -12.1
      vertex 8.2 -29.7 -10.5
      vertex -44.3 -29.7 -12.1
    endloop
  endfacet
  facet normal 0 -1 0
    outer loop
      vertex -44.3 -29.7 -12.1
      vertex -35 -29.7 -10.5
      vertex -44.3 -29.7 12.1
    endloop
  endfacet
  facet normal 0 -1 0
    outer loop
      vertex -25 -29.7 -10.5
      vertex -19.8 -29.7 12.1
      vertex -25 -29.7 12.1
    endloop
  endfacet
  facet normal 0 -1 -0
    outer loop
      vertex -19.8 -29.7 12.1
      vertex -25 -29.7 -10.5
      vertex -19.8 -29.7 -10.5
    endloop
  endfacet
  facet normal 0 -1 0
    outer loop
      vertex -12.8 -29.7 -10.5
      vertex -6.3 -29.7 12.1
      vertex -12.8 -29.7 12.1
    endloop
  endfacet
  facet normal 0 -1 -0
    outer loop
      vertex -6.3 -29.7 12.1
      vertex -12.8 -29.7 -10.5
      vertex -6.3 -29.7 -10.5
    endloop
  endfacet
  facet normal 0 -1 0
    outer loop
      vertex 0.7 -29.7 -10.5
      vertex 8.2 -29.7 12.1
      vertex 0.7 -29.7 12.1
    endloop
  endfacet
  facet normal 0 -1 -0
    outer loop
      vertex 8.2 -29.7 12.1
      vertex 0.7 -29.7 -10.5
      vertex 8.2 -29.7 -10.5
    endloop
  endfacet
  facet normal 0 -1 0
    outer loop
      vertex 17.2 -29.7 -10.5
      vertex 44.3 -29.7 12.1
      vertex 17.2 -29.7 12.1
    endloop
  endfacet
  facet normal 0 -1 0
    outer loop
      vertex 17.2 -29.7 -10.5
      vertex 44.3 -29.7 -12.1
      vertex 44.3 -29.7 12.1
    endloop
  endfacet
  facet normal 0 -1 0
    outer loop
      vertex 8.2 -29.7 -10.5
      vertex 44.3 -29.7 -12.1
      vertex 17.2 -29.7 -10.5
    endloop
  endfacet
  facet normal 1 -0 0
    outer loop
      vertex -41.75 -28.95 12.1
      vertex -41.75 -10.6 -10.6
      vertex -41.75 -10.6 12.1
    endloop
  endfacet
  facet normal 1 0 0
    outer loop
      vertex -41.75 -10.6 -10.6
      vertex -41.75 -28.95 12.1
      vertex -41.75 -28.95 -10.6
    endloop
  endfacet
  facet normal 1 -0 0
    outer loop
      vertex -41.75 10.6 12.1
      vertex -41.75 28.95 -10.6
      vertex -41.75 28.95 12.1
    endloop
  endfacet
  facet normal 1 0 0
    outer loop
      vertex -41.75 28.95 -10.6
      vertex -41.75 10.6 12.1
      vertex -41.75 10.6 -10.6
    endloop
  endfacet
  facet normal -1 0 0
    outer loop
      vertex 43.65 28.95 -10.6
      vertex 43.65 26.25 -10.5
      vertex 43.65 28.95 12.1
    endloop
  endfacet
  facet normal -1 0 0
    outer loop
      vertex 43.65 28.95 -10.6
      vertex 43.65 9.25 -10.5
      vertex 43.65 26.25 -10.5
    endloop
  endfacet
  facet normal -1 0 0
    outer loop
      vertex 43.65 9.25 -10.5
      vertex 43.65 6.05 -10.5
      vertex 43.65 9.25 12.1
    endloop
  endfacet
  facet normal -1 0 0
    outer loop
      vertex 43.65 28.95 -10.6
      vertex 43.65 6.05 -10.5
      vertex 43.65 9.25 -10.5
    endloop
  endfacet
  facet normal -1 0 0
    outer loop
      vertex 43.65 28.95 -10.6
      vertex 43.65 -9.25 -10.5
      vertex 43.65 6.05 -10.5
    endloop
  endfacet
  facet normal -1 0 0
    outer loop
      vertex 43.65 -9.25 -10.5
      vertex 43.65 -11.45 -10.5
      vertex 43.65 -9.25 12.1
    endloop
  endfacet
  facet normal -1 0 0
    outer loop
      vertex 43.65 28.95 -10.6
      vertex 43.65 -11.45 -10.5
      vertex 43.65 -9.25 -10.5
    endloop
  endfacet
  facet normal -1 0 0
    outer loop
      vertex 43.65 -28.95 -10.6
      vertex 43.65 -11.45 -10.5
      vertex 43.65 28.95 -10.6
    endloop
  endfacet
  facet normal -1 -0 0
    outer loop
      vertex 43.65 -11.45 -10.5
      vertex 43.65 -28.95 -10.6
      vertex 43.65 -26.75 -10.5
    endloop
  endfacet
  facet normal -1 0 0
    outer loop
      vertex 43.65 -28.95 12.1
      vertex 43.65 -26.75 -10.5
      vertex 43.65 -28.95 -10.6
    endloop
  endfacet
  facet normal -1 0 0
    outer loop
      vertex 43.65 -26.75 -10.5
      vertex 43.65 -28.95 12.1
      vertex 43.65 -26.75 12.1
    endloop
  endfacet
  facet normal -1 -0 0
    outer loop
      vertex 43.65 28.95 12.1
      vertex 43.65 26.25 -10.5
      vertex 43.65 26.25 12.1
    endloop
  endfacet
  facet normal -1 -0 0
    outer loop
      vertex 43.65 9.25 12.1
      vertex 43.65 6.05 -10.5
      vertex 43.65 6.05 12.1
    endloop
  endfacet
  facet normal -1 -0 0
    outer loop
      vertex 43.65 -9.25 12.1
      vertex 43.65 -11.45 -10.5
      vertex 43.65 -11.45 12.1
    endloop
  endfacet
  facet normal 0 -1 0
    outer loop
      vertex -41.75 28.95 -10.6
      vertex 43.65 28.95 12.1
      vertex -41.75 28.95 12.1
    endloop
  endfacet
  facet normal 0 -1 -0
    outer loop
      vertex 43.65 28.95 12.1
      vertex -41.75 28.95 -10.6
      vertex 43.65 28.95 -10.6
    endloop
  endfacet
  facet normal -0 0 1
    outer loop
      vertex -43.05 10.6 -10.6
      vertex -41.75 -10.6 -10.6
      vertex -41.75 10.6 -10.6
    endloop
  endfacet
  facet normal 0 0 1
    outer loop
      vertex -41.75 -10.6 -10.6
      vertex -43.05 10.6 -10.6
      vertex -43.05 -10.6 -10.6
    endloop
  endfacet
  facet normal 0 0 1
    outer loop
      vertex -41.75 10.6 -10.6
      vertex 43.65 28.95 -10.6
      vertex -41.75 28.95 -10.6
    endloop
  endfacet
  facet normal 0 0 1
    outer loop
      vertex 43.65 28.95 -10.6
      vertex -41.75 10.6 -10.6
      vertex 43.65 -28.95 -10.6
    endloop
  endfacet
  facet normal -0 0 1
    outer loop
      vertex -41.75 -10.6 -10.6
      vertex 43.65 -28.95 -10.6
      vertex -41.75 10.6 -10.6
    endloop
  endfacet
  facet normal 0 0 1
    outer loop
      vertex 43.65 -28.95 -10.6
      vertex -41.75 -10.6 -10.6
      vertex -41.75 -28.95 -10.6
    endloop
  endfacet
  facet normal 0 1 0
    outer loop
      vertex 43.65 -28.95 12.1
      vertex 17.2 -28.95 -10.5
      vertex 17.2 -28.95 12.1
    endloop
  endfacet
  facet normal 0 0 0
    outer loop
      vertex 17.2 -28.95 -10.5
      vertex 0.7 -28.95 -10.5
      vertex 8.2 -28.95 -10.5
    endloop
  endfacet
  facet normal 0 0 0
    outer loop
      vertex 17.2 -28.95 -10.5
      vertex -6.3 -28.95 -10.5
      vertex 0.7 -28.95 -10.5
    endloop
  endfacet
  facet normal 0 0 0
    outer loop
      vertex 17.2 -28.95 -10.5
      vertex -12.8 -28.95 -10.5
      vertex -6.3 -28.95 -10.5
    endloop
  endfacet
  facet normal 0 0 0
    outer loop
      vertex 17.2 -28.95 -10.5
      vertex -19.8 -28.95 -10.5
      vertex -12.8 -28.95 -10.5
    endloop
  endfacet
  facet normal 0 0 0
    outer loop
      vertex 17.2 -28.95 -10.5
      vertex -25 -28.95 -10.5
      vertex -19.8 -28.95 -10.5
    endloop
  endfacet
  facet normal 0 1 0
    outer loop
      vertex -41.75 -28.95 -10.6
      vertex -25 -28.95 -10.5
      vertex 17.2 -28.95 -10.5
    endloop
  endfacet
  facet normal 0 1 0
    outer loop
      vertex -41.75 -28.95 -10.6
      vertex 17.2 -28.95 -10.5
      vertex 43.65 -28.95 -10.6
    endloop
  endfacet
  facet normal 0 1 -0
    outer loop
      vertex 43.65 -28.95 -10.6
      vertex 17.2 -28.95 -10.5
      vertex 43.65 -28.95 12.1
    endloop
  endfacet
  facet normal 0 1 -0
    outer loop
      vertex 8.2 -28.95 -10.5
      vertex 0.7 -28.95 12.1
      vertex 8.2 -28.95 12.1
    endloop
  endfacet
  facet normal 0 1 0
    outer loop
      vertex 0.7 -28.95 12.1
      vertex 8.2 -28.95 -10.5
      vertex 0.7 -28.95 -10.5
    endloop
  endfacet
  facet normal 0 1 -0
    outer loop
      vertex -6.3 -28.95 -10.5
      vertex -12.8 -28.95 12.1
      vertex -6.3 -28.95 12.1
    endloop
  endfacet
  facet normal 0 1 0
    outer loop
      vertex -12.8 -28.95 12.1
      vertex -6.3 -28.95 -10.5
      vertex -12.8 -28.95 -10.5
    endloop
  endfacet
  facet normal 0 1 -0
    outer loop
      vertex -19.8 -28.95 -10.5
      vertex -25 -28.95 12.1
      vertex -19.8 -28.95 12.1
    endloop
  endfacet
  facet normal 0 1 0
    outer loop
      vertex -25 -28.95 12.1
      vertex -19.8 -28.95 -10.5
      vertex -25 -28.95 -10.5
    endloop
  endfacet
  facet normal 0 1 -0
    outer loop
      vertex -35 -28.95 -10.5
      vertex -41.75 -28.95 12.1
      vertex -35 -28.95 12.1
    endloop
  endfacet
  facet normal 0 1 0
    outer loop
      vertex -35 -28.95 -10.5
      vertex -41.75 -28.95 -10.6
      vertex -41.75 -28.95 12.1
    endloop
  endfacet
  facet normal 0 1 0
    outer loop
      vertex -25 -28.95 -10.5
      vertex -41.75 -28.95 -10.6
      vertex -35 -28.95 -10.5
    endloop
  endfacet
  facet normal 1 -0 0
    outer loop
      vertex -43.35 -10.6 12.1
      vertex -43.35 10.6 -7.8
      vertex -43.35 10.6 12.1
    endloop
  endfacet
  facet normal 1 0 0
    outer loop
      vertex -43.35 10.6 -7.8
      vertex -43.35 -10.6 12.1
      vertex -43.35 -10.6 -7.8
    endloop
  endfacet
  facet normal 0 -1 0
    outer loop
      vertex -44.3 10.6 -7.8
      vertex -43.05 10.6 -10.6
      vertex -43.35 10.6 -7.8
    endloop
  endfacet
  facet normal 0 -1 0
    outer loop
      vertex -44.3 10.6 -10.8
      vertex -43.05 10.6 -10.6
      vertex -44.3 10.6 -7.8
    endloop
  endfacet
  facet normal 0 -1 -0
    outer loop
      vertex -43.05 10.6 -10.6
      vertex -44.3 10.6 -10.8
      vertex -43.05 10.6 -10.8
    endloop
  endfacet
  facet normal 0 -1 0
    outer loop
      vertex -43.35 10.6 -7.8
      vertex -41.75 10.6 12.1
      vertex -43.35 10.6 12.1
    endloop
  endfacet
  facet normal 0 -1 0
    outer loop
      vertex -41.75 10.6 -10.6
      vertex -43.35 10.6 -7.8
      vertex -43.05 10.6 -10.6
    endloop
  endfacet
  facet normal 0 -1 0
    outer loop
      vertex -43.35 10.6 -7.8
      vertex -41.75 10.6 -10.6
      vertex -41.75 10.6 12.1
    endloop
  endfacet
  facet normal 0 1 0
    outer loop
      vertex -41.75 -10.6 12.1
      vertex -43.35 -10.6 -7.8
      vertex -43.35 -10.6 12.1
    endloop
  endfacet
  facet normal 0 1 -0
    outer loop
      vertex -41.75 -10.6 -10.6
      vertex -43.35 -10.6 -7.8
      vertex -41.75 -10.6 12.1
    endloop
  endfacet
  facet normal 0 1 -0
    outer loop
      vertex -43.05 -10.6 -10.6
      vertex -43.35 -10.6 -7.8
      vertex -41.75 -10.6 -10.6
    endloop
  endfacet
  facet normal 0 1 0
    outer loop
      vertex -43.35 -10.6 -7.8
      vertex -43.05 -10.6 -10.6
      vertex -44.3 -10.6 -7.8
    endloop
  endfacet
  facet normal 0 1 0
    outer loop
      vertex -44.3 -10.6 -10.8
      vertex -43.05 -10.6 -10.6
      vertex -43.05 -10.6 -10.8
    endloop
  endfacet
  facet normal 0 1 0
    outer loop
      vertex -43.05 -10.6 -10.6
      vertex -44.3 -10.6 -10.8
      vertex -44.3 -10.6 -7.8
    endloop
  endfacet
  facet normal 0 0 -1
    outer loop
      vertex -44.3 -10.6 -7.8
      vertex -43.35 10.6 -7.8
      vertex -43.35 -10.6 -7.8
    endloop
  endfacet
  facet normal -0 0 -1
    outer loop
      vertex -43.35 10.6 -7.8
      vertex -44.3 -10.6 -7.8
      vertex -44.3 10.6 -7.8
    endloop
  endfacet
  facet normal -1 0 0
    outer loop
      vertex -43.05 -10.6 -10.8
      vertex -43.05 10.6 -10.6
      vertex -43.05 10.6 -10.8
    endloop
  endfacet
  facet normal -1 -0 0
    outer loop
      vertex -43.05 10.6 -10.6
      vertex -43.05 -10.6 -10.8
      vertex -43.05 -10.6 -10.6
    endloop
  endfacet
  facet normal -0 0 1
    outer loop
      vertex -44.3 10.6 -10.8
      vertex -43.05 -10.6 -10.8
      vertex -43.05 10.6 -10.8
    endloop
  endfacet
  facet normal 0 0 1
    outer loop
      vertex -43.05 -10.6 -10.8
      vertex -44.3 10.6 -10.8
      vertex -44.3 -10.6 -10.8
    endloop
  endfacet
endsolid OpenSCAD_Model
