solid OpenSCAD_Model
  facet normal -1 0 0
    outer loop
      vertex -7.25 -6.81096 -3.5
      vertex -7.25 -11.25 19
      vertex -7.25 -6.81096 19
    endloop
  endfacet
  facet normal -1 0 0
    outer loop
      vertex -7.25 -12.25 -3.5
      vertex -7.25 -11.25 19
      vertex -7.25 -6.81096 -3.5
    endloop
  endfacet
  facet normal -1 0 0
    outer loop
      vertex -7.25 -12.25 35
      vertex -7.25 -11.25 19
      vertex -7.25 -12.25 -3.5
    endloop
  endfacet
  facet normal -1 0 0
    outer loop
      vertex -7.25 -11.25 19
      vertex -7.25 -12.25 35
      vertex -7.25 -11.25 35
    endloop
  endfacet
  facet normal -1 0 0
    outer loop
      vertex -7.25 6.81096 -3.5
      vertex -7.25 12.25 19
      vertex -7.25 12.25 -3.5
    endloop
  endfacet
  facet normal -1 -0 0
    outer loop
      vertex -7.25 12.25 19
      vertex -7.25 6.81096 -3.5
      vertex -7.25 6.81096 19
    endloop
  endfacet
  facet normal 0 0 1
    outer loop
      vertex -9.13545 4.06737 19
      vertex -7.25 6.81096 19
      vertex -8.09017 5.87785 19
    endloop
  endfacet
  facet normal 0 0 1
    outer loop
      vertex -9.78148 2.07912 19
      vertex -7.25 6.81096 19
      vertex -9.13545 4.06737 19
    endloop
  endfacet
  facet normal 0 0 1
    outer loop
      vertex -7.25 6.81096 19
      vertex -9.78148 2.07912 19
      vertex -7.25 -6.81096 19
    endloop
  endfacet
  facet normal 0 0 1
    outer loop
      vertex -7.25 -6.81096 19
      vertex -9.13545 -4.06737 19
      vertex -8.09017 -5.87785 19
    endloop
  endfacet
  facet normal -0 0 1
    outer loop
      vertex -9.78148 -2.07912 19
      vertex -7.25 -6.81096 19
      vertex -9.78148 2.07912 19
    endloop
  endfacet
  facet normal 0 0 1
    outer loop
      vertex -7.25 -6.81096 19
      vertex -9.78148 -2.07912 19
      vertex -9.13545 -4.06737 19
    endloop
  endfacet
  facet normal 0 -0 1
    outer loop
      vertex -9.78148 -2.07912 19
      vertex -9.78148 2.07912 19
      vertex -10 0 19
    endloop
  endfacet
  facet normal -0 0 1
    outer loop
      vertex 6.25 11.25 19
      vertex 7.25 6.81096 19
      vertex 7.25 12.25 19
    endloop
  endfacet
  facet normal 0 0 1
    outer loop
      vertex 7.25 6.81096 19
      vertex 6.25 11.25 19
      vertex 7.25 -6.81096 19
    endloop
  endfacet
  facet normal 0 0 1
    outer loop
      vertex 6.25 -11.25 19
      vertex 7.25 -6.81096 19
      vertex 6.25 11.25 19
    endloop
  endfacet
  facet normal 0 0 1
    outer loop
      vertex 7.25 12.25 19
      vertex -6.25 11.25 19
      vertex 6.25 11.25 19
    endloop
  endfacet
  facet normal -0 0 1
    outer loop
      vertex -7.25 12.25 19
      vertex -6.25 11.25 19
      vertex 7.25 12.25 19
    endloop
  endfacet
  facet normal 0 0 1
    outer loop
      vertex -7.25 6.81096 19
      vertex -6.25 11.25 19
      vertex -7.25 12.25 19
    endloop
  endfacet
  facet normal 0 0 1
    outer loop
      vertex -6.25 11.25 19
      vertex -7.25 6.81096 19
      vertex -6.25 -11.25 19
    endloop
  endfacet
  facet normal -0 0 1
    outer loop
      vertex -7.25 -6.81096 19
      vertex -6.25 -11.25 19
      vertex -7.25 6.81096 19
    endloop
  endfacet
  facet normal 0 0 1
    outer loop
      vertex -6.25 -11.25 19
      vertex -7.25 -6.81096 19
      vertex -7.25 -11.25 19
    endloop
  endfacet
  facet normal 0 0 1
    outer loop
      vertex 9.78148 2.07912 19
      vertex 9.78148 -2.07912 19
      vertex 10 0 19
    endloop
  endfacet
  facet normal 0 0 1
    outer loop
      vertex 7.25 6.81096 19
      vertex 9.78148 2.07912 19
      vertex 9.13545 4.06737 19
    endloop
  endfacet
  facet normal 0 0 1
    outer loop
      vertex 9.78148 2.07912 19
      vertex 7.25 6.81096 19
      vertex 9.78148 -2.07912 19
    endloop
  endfacet
  facet normal 0 0 1
    outer loop
      vertex 7.25 6.81096 19
      vertex 9.13545 4.06737 19
      vertex 8.09017 5.87785 19
    endloop
  endfacet
  facet normal 0 0 1
    outer loop
      vertex 7.25 -6.81096 19
      vertex 9.78148 -2.07912 19
      vertex 7.25 6.81096 19
    endloop
  endfacet
  facet normal 0 0 1
    outer loop
      vertex 9.78148 -2.07912 19
      vertex 7.25 -6.81096 19
      vertex 9.13545 -4.06737 19
    endloop
  endfacet
  facet normal 0 0 1
    outer loop
      vertex 9.13545 -4.06737 19
      vertex 7.25 -6.81096 19
      vertex 8.09017 -5.87785 19
    endloop
  endfacet
  facet normal 0 0 1
    outer loop
      vertex 7.25 -6.81096 19
      vertex 6.25 -11.25 19
      vertex 7.25 -11.25 19
    endloop
  endfacet
  facet normal 1 0 0
    outer loop
      vertex 7.25 -11.25 35
      vertex 7.25 -12.25 35
      vertex 7.25 -11.25 19
    endloop
  endfacet
  facet normal 1 -0 0
    outer loop
      vertex 7.25 -11.25 19
      vertex 7.25 -6.81096 -3.5
      vertex 7.25 -6.81096 19
    endloop
  endfacet
  facet normal 1 0 0
    outer loop
      vertex 7.25 -11.25 19
      vertex 7.25 -12.25 -3.5
      vertex 7.25 -6.81096 -3.5
    endloop
  endfacet
  facet normal 1 0 0
    outer loop
      vertex 7.25 -12.25 -3.5
      vertex 7.25 -11.25 19
      vertex 7.25 -12.25 35
    endloop
  endfacet
  facet normal 1 -0 0
    outer loop
      vertex 7.25 6.81096 19
      vertex 7.25 12.25 -3.5
      vertex 7.25 12.25 19
    endloop
  endfacet
  facet normal 1 0 0
    outer loop
      vertex 7.25 12.25 -3.5
      vertex 7.25 6.81096 19
      vertex 7.25 6.81096 -3.5
    endloop
  endfacet
  facet normal 0 1 -0
    outer loop
      vertex 7.25 12.25 -3.5
      vertex -7.25 12.25 19
      vertex 7.25 12.25 19
    endloop
  endfacet
  facet normal 0 1 0
    outer loop
      vertex -7.25 12.25 19
      vertex 7.25 12.25 -3.5
      vertex -7.25 12.25 -3.5
    endloop
  endfacet
  facet normal 0 -1 0
    outer loop
      vertex -7.25 -12.25 35
      vertex -0.313585 -12.25 33.4836
      vertex 7.25 -12.25 35
    endloop
  endfacet
  facet normal 0 -1 0
    outer loop
      vertex -7.25 -12.25 35
      vertex -0.927051 -12.25 33.3532
      vertex -0.313585 -12.25 33.4836
    endloop
  endfacet
  facet normal 0 -1 0
    outer loop
      vertex -7.25 -12.25 35
      vertex -1.5 -12.25 33.0981
      vertex -0.927051 -12.25 33.3532
    endloop
  endfacet
  facet normal 0 -1 0
    outer loop
      vertex -7.25 -12.25 35
      vertex -2.00739 -12.25 32.7294
      vertex -1.5 -12.25 33.0981
    endloop
  endfacet
  facet normal 0 -1 0
    outer loop
      vertex -7.25 -12.25 35
      vertex -2.42705 -12.25 32.2634
      vertex -2.00739 -12.25 32.7294
    endloop
  endfacet
  facet normal 0 -1 0
    outer loop
      vertex -7.25 -12.25 35
      vertex -2.74064 -12.25 31.7202
      vertex -2.42705 -12.25 32.2634
    endloop
  endfacet
  facet normal 0 -1 0
    outer loop
      vertex -7.25 -12.25 35
      vertex -2.93444 -12.25 31.1237
      vertex -2.74064 -12.25 31.7202
    endloop
  endfacet
  facet normal 0 -1 0
    outer loop
      vertex -7.25 -12.25 35
      vertex -3 -12.25 30.5
      vertex -2.93444 -12.25 31.1237
    endloop
  endfacet
  facet normal 0 -1 0
    outer loop
      vertex -7.25 -12.25 35
      vertex -2.93444 -12.25 29.8763
      vertex -3 -12.25 30.5
    endloop
  endfacet
  facet normal 0 -1 0
    outer loop
      vertex -7.25 -12.25 35
      vertex -2.74064 -12.25 29.2798
      vertex -2.93444 -12.25 29.8763
    endloop
  endfacet
  facet normal 0 -1 0
    outer loop
      vertex -7.25 -12.25 35
      vertex -2.42705 -12.25 28.7366
      vertex -2.74064 -12.25 29.2798
    endloop
  endfacet
  facet normal 0 -1 -0
    outer loop
      vertex -0.313585 -12.25 27.5164
      vertex -7.25 -12.25 -3.5
      vertex 0.313585 -12.25 27.5164
    endloop
  endfacet
  facet normal 0 -1 -0
    outer loop
      vertex -0.927051 -12.25 27.6468
      vertex -7.25 -12.25 -3.5
      vertex -0.313585 -12.25 27.5164
    endloop
  endfacet
  facet normal 0 -1 -0
    outer loop
      vertex -1.5 -12.25 27.9019
      vertex -7.25 -12.25 -3.5
      vertex -0.927051 -12.25 27.6468
    endloop
  endfacet
  facet normal 0 -1 -0
    outer loop
      vertex -2.00739 -12.25 28.2706
      vertex -7.25 -12.25 -3.5
      vertex -1.5 -12.25 27.9019
    endloop
  endfacet
  facet normal 0 -1 -0
    outer loop
      vertex -2.42705 -12.25 28.7366
      vertex -7.25 -12.25 -3.5
      vertex -2.00739 -12.25 28.2706
    endloop
  endfacet
  facet normal 0 -1 0
    outer loop
      vertex -7.25 -12.25 -3.5
      vertex -2.42705 -12.25 28.7366
      vertex -7.25 -12.25 35
    endloop
  endfacet
  facet normal 0 -1 0
    outer loop
      vertex 0.313585 -12.25 33.4836
      vertex 7.25 -12.25 35
      vertex -0.313585 -12.25 33.4836
    endloop
  endfacet
  facet normal 0 -1 0
    outer loop
      vertex 0.927051 -12.25 33.3532
      vertex 7.25 -12.25 35
      vertex 0.313585 -12.25 33.4836
    endloop
  endfacet
  facet normal 0 -1 0
    outer loop
      vertex 1.5 -12.25 33.0981
      vertex 7.25 -12.25 35
      vertex 0.927051 -12.25 33.3532
    endloop
  endfacet
  facet normal 0 -1 0
    outer loop
      vertex 2.00739 -12.25 32.7294
      vertex 7.25 -12.25 35
      vertex 1.5 -12.25 33.0981
    endloop
  endfacet
  facet normal 0 -1 0
    outer loop
      vertex 2.42705 -12.25 32.2634
      vertex 7.25 -12.25 35
      vertex 2.00739 -12.25 32.7294
    endloop
  endfacet
  facet normal 0 -1 0
    outer loop
      vertex 2.74064 -12.25 31.7202
      vertex 7.25 -12.25 35
      vertex 2.42705 -12.25 32.2634
    endloop
  endfacet
  facet normal 0 -1 0
    outer loop
      vertex 2.93444 -12.25 31.1237
      vertex 7.25 -12.25 35
      vertex 2.74064 -12.25 31.7202
    endloop
  endfacet
  facet normal 0 -1 0
    outer loop
      vertex 3 -12.25 30.5
      vertex 7.25 -12.25 35
      vertex 2.93444 -12.25 31.1237
    endloop
  endfacet
  facet normal 0 -1 0
    outer loop
      vertex 2.93444 -12.25 29.8763
      vertex 7.25 -12.25 35
      vertex 3 -12.25 30.5
    endloop
  endfacet
  facet normal 0 -1 0
    outer loop
      vertex 2.74064 -12.25 29.2798
      vertex 7.25 -12.25 35
      vertex 2.93444 -12.25 29.8763
    endloop
  endfacet
  facet normal 0 -1 0
    outer loop
      vertex 2.42705 -12.25 28.7366
      vertex 7.25 -12.25 35
      vertex 2.74064 -12.25 29.2798
    endloop
  endfacet
  facet normal 0 -1 0
    outer loop
      vertex 7.25 -12.25 -3.5
      vertex 0.313585 -12.25 27.5164
      vertex -7.25 -12.25 -3.5
    endloop
  endfacet
  facet normal 0 -1 0
    outer loop
      vertex 0.313585 -12.25 27.5164
      vertex 7.25 -12.25 -3.5
      vertex 0.927051 -12.25 27.6468
    endloop
  endfacet
  facet normal 0 -1 0
    outer loop
      vertex 0.927051 -12.25 27.6468
      vertex 7.25 -12.25 -3.5
      vertex 1.5 -12.25 27.9019
    endloop
  endfacet
  facet normal 0 -1 0
    outer loop
      vertex 1.5 -12.25 27.9019
      vertex 7.25 -12.25 -3.5
      vertex 2.00739 -12.25 28.2706
    endloop
  endfacet
  facet normal 0 -1 0
    outer loop
      vertex 2.00739 -12.25 28.2706
      vertex 7.25 -12.25 -3.5
      vertex 2.42705 -12.25 28.7366
    endloop
  endfacet
  facet normal 0 -1 0
    outer loop
      vertex 2.42705 -12.25 28.7366
      vertex 7.25 -12.25 -3.5
      vertex 7.25 -12.25 35
    endloop
  endfacet
  facet normal 0.994522 0.104526 -4.14927e-19
    outer loop
      vertex 10 0 19
      vertex 9.78148 2.07912 -3.5
      vertex 9.78148 2.07912 19
    endloop
  endfacet
  facet normal 0.994522 0.104526 -4.14927e-19
    outer loop
      vertex 9.78148 2.07912 -3.5
      vertex 10 0 19
      vertex 10 0 -3.5
    endloop
  endfacet
  facet normal -0.994522 0.104526 4.14927e-19
    outer loop
      vertex -10 0 -3.5
      vertex -9.78148 2.07912 19
      vertex -9.78148 2.07912 -3.5
    endloop
  endfacet
  facet normal -0.994522 0.104526 4.14927e-19
    outer loop
      vertex -9.78148 2.07912 19
      vertex -10 0 -3.5
      vertex -10 0 19
    endloop
  endfacet
  facet normal -0.743147 0.669128 3.38361e-19
    outer loop
      vertex -8.09017 5.87785 -3.5
      vertex -7.25 6.81096 19
      vertex -7.25 6.81096 -3.5
    endloop
  endfacet
  facet normal -0.743147 0.669128 3.38361e-19
    outer loop
      vertex -7.25 6.81096 19
      vertex -8.09017 5.87785 -3.5
      vertex -8.09017 5.87785 19
    endloop
  endfacet
  facet normal -0.866026 0.5 5.58722e-19
    outer loop
      vertex -9.13545 4.06737 -3.5
      vertex -8.09017 5.87785 19
      vertex -8.09017 5.87785 -3.5
    endloop
  endfacet
  facet normal -0.866026 0.5 5.58722e-19
    outer loop
      vertex -8.09017 5.87785 19
      vertex -9.13545 4.06737 -3.5
      vertex -9.13545 4.06737 19
    endloop
  endfacet
  facet normal 0.866026 0.5 -5.58722e-19
    outer loop
      vertex 9.13545 4.06737 19
      vertex 8.09017 5.87785 -3.5
      vertex 8.09017 5.87785 19
    endloop
  endfacet
  facet normal 0.866026 0.5 -5.58722e-19
    outer loop
      vertex 8.09017 5.87785 -3.5
      vertex 9.13545 4.06737 19
      vertex 9.13545 4.06737 -3.5
    endloop
  endfacet
  facet normal 0.951055 0.309021 -2.25608e-18
    outer loop
      vertex 9.78148 2.07912 19
      vertex 9.13545 4.06737 -3.5
      vertex 9.13545 4.06737 19
    endloop
  endfacet
  facet normal 0.951055 0.309021 -2.25608e-18
    outer loop
      vertex 9.13545 4.06737 -3.5
      vertex 9.78148 2.07912 19
      vertex 9.78148 2.07912 -3.5
    endloop
  endfacet
  facet normal 0.743147 0.669128 -3.38361e-19
    outer loop
      vertex 8.09017 5.87785 19
      vertex 7.25 6.81096 -3.5
      vertex 7.25 6.81096 19
    endloop
  endfacet
  facet normal 0.743147 0.669128 -3.38361e-19
    outer loop
      vertex 7.25 6.81096 -3.5
      vertex 8.09017 5.87785 19
      vertex 8.09017 5.87785 -3.5
    endloop
  endfacet
  facet normal -0.951055 0.309021 2.25608e-18
    outer loop
      vertex -9.78148 2.07912 -3.5
      vertex -9.13545 4.06737 19
      vertex -9.13545 4.06737 -3.5
    endloop
  endfacet
  facet normal -0.951055 0.309021 2.25608e-18
    outer loop
      vertex -9.13545 4.06737 19
      vertex -9.78148 2.07912 -3.5
      vertex -9.78148 2.07912 19
    endloop
  endfacet
  facet normal 0.994522 -0.104526 4.14927e-19
    outer loop
      vertex 9.78148 -2.07912 19
      vertex 10 0 -3.5
      vertex 10 0 19
    endloop
  endfacet
  facet normal 0.994522 -0.104526 4.14927e-19
    outer loop
      vertex 10 0 -3.5
      vertex 9.78148 -2.07912 19
      vertex 9.78148 -2.07912 -3.5
    endloop
  endfacet
  facet normal 0 0 -1
    outer loop
      vertex -9.13545 -4.06737 -3.5
      vertex -7.25 -6.81096 -3.5
      vertex -8.09017 -5.87785 -3.5
    endloop
  endfacet
  facet normal 0 0 -1
    outer loop
      vertex -9.78148 -2.07912 -3.5
      vertex -7.25 -6.81096 -3.5
      vertex -9.13545 -4.06737 -3.5
    endloop
  endfacet
  facet normal 0 0 -1
    outer loop
      vertex -7.25 -6.81096 -3.5
      vertex -9.78148 -2.07912 -3.5
      vertex -7.25 6.81096 -3.5
    endloop
  endfacet
  facet normal 0 0 -1
    outer loop
      vertex -7.25 6.81096 -3.5
      vertex -9.13545 4.06737 -3.5
      vertex -8.09017 5.87785 -3.5
    endloop
  endfacet
  facet normal 0 0 -1
    outer loop
      vertex -9.78148 2.07912 -3.5
      vertex -7.25 6.81096 -3.5
      vertex -9.78148 -2.07912 -3.5
    endloop
  endfacet
  facet normal 0 0 -1
    outer loop
      vertex -7.25 6.81096 -3.5
      vertex -9.78148 2.07912 -3.5
      vertex -9.13545 4.06737 -3.5
    endloop
  endfacet
  facet normal 0 -0 -1
    outer loop
      vertex -9.78148 2.07912 -3.5
      vertex -9.78148 -2.07912 -3.5
      vertex -10 0 -3.5
    endloop
  endfacet
  facet normal 0 0 -1
    outer loop
      vertex -7.25 -6.81096 -3.5
      vertex 7.25 -6.81096 -3.5
      vertex 7.25 -12.25 -3.5
    endloop
  endfacet
  facet normal 0 0 -1
    outer loop
      vertex 7.25 -6.81096 -3.5
      vertex -7.25 -6.81096 -3.5
      vertex 7.25 6.81096 -3.5
    endloop
  endfacet
  facet normal 0 0 -1
    outer loop
      vertex -7.25 -6.81096 -3.5
      vertex 7.25 -12.25 -3.5
      vertex -7.25 -12.25 -3.5
    endloop
  endfacet
  facet normal 0 0 -1
    outer loop
      vertex -7.25 6.81096 -3.5
      vertex 7.25 6.81096 -3.5
      vertex -7.25 -6.81096 -3.5
    endloop
  endfacet
  facet normal 0 0 -1
    outer loop
      vertex 7.25 6.81096 -3.5
      vertex -7.25 6.81096 -3.5
      vertex 7.25 12.25 -3.5
    endloop
  endfacet
  facet normal -0 0 -1
    outer loop
      vertex 7.25 12.25 -3.5
      vertex -7.25 6.81096 -3.5
      vertex -7.25 12.25 -3.5
    endloop
  endfacet
  facet normal 0 0 -1
    outer loop
      vertex 9.78148 -2.07912 -3.5
      vertex 9.78148 2.07912 -3.5
      vertex 10 0 -3.5
    endloop
  endfacet
  facet normal 0 0 -1
    outer loop
      vertex 7.25 -6.81096 -3.5
      vertex 9.78148 -2.07912 -3.5
      vertex 9.13545 -4.06737 -3.5
    endloop
  endfacet
  facet normal -0 0 -1
    outer loop
      vertex 9.78148 -2.07912 -3.5
      vertex 7.25 -6.81096 -3.5
      vertex 9.78148 2.07912 -3.5
    endloop
  endfacet
  facet normal 0 0 -1
    outer loop
      vertex 7.25 -6.81096 -3.5
      vertex 9.13545 -4.06737 -3.5
      vertex 8.09017 -5.87785 -3.5
    endloop
  endfacet
  facet normal 0 0 -1
    outer loop
      vertex 7.25 6.81096 -3.5
      vertex 9.78148 2.07912 -3.5
      vertex 7.25 -6.81096 -3.5
    endloop
  endfacet
  facet normal 0 0 -1
    outer loop
      vertex 9.78148 2.07912 -3.5
      vertex 7.25 6.81096 -3.5
      vertex 9.13545 4.06737 -3.5
    endloop
  endfacet
  facet normal 0 0 -1
    outer loop
      vertex 9.13545 4.06737 -3.5
      vertex 7.25 6.81096 -3.5
      vertex 8.09017 5.87785 -3.5
    endloop
  endfacet
  facet normal 0.866026 -0.5 5.58722e-19
    outer loop
      vertex 8.09017 -5.87785 19
      vertex 9.13545 -4.06737 -3.5
      vertex 9.13545 -4.06737 19
    endloop
  endfacet
  facet normal 0.866026 -0.5 5.58722e-19
    outer loop
      vertex 9.13545 -4.06737 -3.5
      vertex 8.09017 -5.87785 19
      vertex 8.09017 -5.87785 -3.5
    endloop
  endfacet
  facet normal -0.866026 -0.5 -5.58722e-19
    outer loop
      vertex -8.09017 -5.87785 -3.5
      vertex -9.13545 -4.06737 19
      vertex -9.13545 -4.06737 -3.5
    endloop
  endfacet
  facet normal -0.866026 -0.5 -5.58722e-19
    outer loop
      vertex -9.13545 -4.06737 19
      vertex -8.09017 -5.87785 -3.5
      vertex -8.09017 -5.87785 19
    endloop
  endfacet
  facet normal 0.951055 -0.309021 2.25608e-18
    outer loop
      vertex 9.13545 -4.06737 19
      vertex 9.78148 -2.07912 -3.5
      vertex 9.78148 -2.07912 19
    endloop
  endfacet
  facet normal 0.951055 -0.309021 2.25608e-18
    outer loop
      vertex 9.78148 -2.07912 -3.5
      vertex 9.13545 -4.06737 19
      vertex 9.13545 -4.06737 -3.5
    endloop
  endfacet
  facet normal -0.743147 -0.669128 -3.38361e-19
    outer loop
      vertex -7.25 -6.81096 -3.5
      vertex -8.09017 -5.87785 19
      vertex -8.09017 -5.87785 -3.5
    endloop
  endfacet
  facet normal -0.743147 -0.669128 -3.38361e-19
    outer loop
      vertex -8.09017 -5.87785 19
      vertex -7.25 -6.81096 -3.5
      vertex -7.25 -6.81096 19
    endloop
  endfacet
  facet normal -0.951055 -0.309021 -2.25608e-18
    outer loop
      vertex -9.13545 -4.06737 -3.5
      vertex -9.78148 -2.07912 19
      vertex -9.78148 -2.07912 -3.5
    endloop
  endfacet
  facet normal -0.951055 -0.309021 -2.25608e-18
    outer loop
      vertex -9.78148 -2.07912 19
      vertex -9.13545 -4.06737 -3.5
      vertex -9.13545 -4.06737 19
    endloop
  endfacet
  facet normal -0.994522 -0.104526 -4.14927e-19
    outer loop
      vertex -9.78148 -2.07912 -3.5
      vertex -10 0 19
      vertex -10 0 -3.5
    endloop
  endfacet
  facet normal -0.994522 -0.104526 -4.14927e-19
    outer loop
      vertex -10 0 19
      vertex -9.78148 -2.07912 -3.5
      vertex -9.78148 -2.07912 19
    endloop
  endfacet
  facet normal 0.743147 -0.669128 3.38361e-19
    outer loop
      vertex 7.25 -6.81096 19
      vertex 8.09017 -5.87785 -3.5
      vertex 8.09017 -5.87785 19
    endloop
  endfacet
  facet normal 0.743147 -0.669128 3.38361e-19
    outer loop
      vertex 8.09017 -5.87785 -3.5
      vertex 7.25 -6.81096 19
      vertex 7.25 -6.81096 -3.5
    endloop
  endfacet
  facet normal 1 0 0
    outer loop
      vertex -6.25 11.25 19
      vertex -6.25 -1.25 7
      vertex -6.25 11.25 2
    endloop
  endfacet
  facet normal 1 -0 0
    outer loop
      vertex -6.25 -11.25 19
      vertex -6.25 -1.25 7
      vertex -6.25 11.25 19
    endloop
  endfacet
  facet normal 1 0 0
    outer loop
      vertex -6.25 -1.25 7
      vertex -6.25 -11.25 19
      vertex -6.25 -11.25 7
    endloop
  endfacet
  facet normal 1 0 0
    outer loop
      vertex -6.25 11.25 2
      vertex -6.25 -1.25 7
      vertex -6.25 -1.25 2
    endloop
  endfacet
  facet normal -1 0 0
    outer loop
      vertex 6.25 -1.25 7
      vertex 6.25 11.25 2
      vertex 6.25 -1.25 2
    endloop
  endfacet
  facet normal -1 0 0
    outer loop
      vertex 6.25 11.25 2
      vertex 6.25 -1.25 7
      vertex 6.25 11.25 19
    endloop
  endfacet
  facet normal -1 0 0
    outer loop
      vertex 6.25 -11.25 19
      vertex 6.25 -1.25 7
      vertex 6.25 -11.25 7
    endloop
  endfacet
  facet normal -1 0 0
    outer loop
      vertex 6.25 -1.25 7
      vertex 6.25 -11.25 19
      vertex 6.25 11.25 19
    endloop
  endfacet
  facet normal -0 0 1
    outer loop
      vertex -6.25 11.25 2
      vertex 6.25 -1.25 2
      vertex 6.25 11.25 2
    endloop
  endfacet
  facet normal 0 0 1
    outer loop
      vertex 6.25 -1.25 2
      vertex -6.25 11.25 2
      vertex -6.25 -1.25 2
    endloop
  endfacet
  facet normal 0 1 -0
    outer loop
      vertex 6.25 -11.25 7
      vertex -6.25 -11.25 19
      vertex 6.25 -11.25 19
    endloop
  endfacet
  facet normal 0 1 0
    outer loop
      vertex -6.25 -11.25 19
      vertex 6.25 -11.25 7
      vertex -6.25 -11.25 7
    endloop
  endfacet
  facet normal 0 -1 0
    outer loop
      vertex -6.25 11.25 2
      vertex 6.25 11.25 19
      vertex -6.25 11.25 19
    endloop
  endfacet
  facet normal 0 -1 -0
    outer loop
      vertex 6.25 11.25 19
      vertex -6.25 11.25 2
      vertex 6.25 11.25 2
    endloop
  endfacet
  facet normal -0 0 1
    outer loop
      vertex -6.25 -1.25 7
      vertex 6.25 -11.25 7
      vertex 6.25 -1.25 7
    endloop
  endfacet
  facet normal 0 0 1
    outer loop
      vertex 6.25 -11.25 7
      vertex -6.25 -1.25 7
      vertex -6.25 -11.25 7
    endloop
  endfacet
  facet normal 0 1 -0
    outer loop
      vertex 6.25 -1.25 2
      vertex -6.25 -1.25 7
      vertex 6.25 -1.25 7
    endloop
  endfacet
  facet normal 0 1 0
    outer loop
      vertex -6.25 -1.25 7
      vertex 6.25 -1.25 2
      vertex -6.25 -1.25 2
    endloop
  endfacet
  facet normal -0 0 1
    outer loop
      vertex -7.25 -11.25 35
      vertex 7.25 -12.25 35
      vertex 7.25 -11.25 35
    endloop
  endfacet
  facet normal 0 0 1
    outer loop
      vertex 7.25 -12.25 35
      vertex -7.25 -11.25 35
      vertex -7.25 -12.25 35
    endloop
  endfacet
  facet normal 0 1 0
    outer loop
      vertex 6.25 -11.25 19
      vertex 7.25 -11.25 35
      vertex 7.25 -11.25 19
    endloop
  endfacet
  facet normal 0 1 0
    outer loop
      vertex 7.25 -11.25 35
      vertex 6.25 -11.25 19
      vertex -7.25 -11.25 35
    endloop
  endfacet
  facet normal 0 1 -0
    outer loop
      vertex -6.25 -11.25 19
      vertex -7.25 -11.25 35
      vertex 6.25 -11.25 19
    endloop
  endfacet
  facet normal 0 1 0
    outer loop
      vertex -7.25 -11.25 35
      vertex -6.25 -11.25 19
      vertex -7.25 -11.25 19
    endloop
  endfacet
  facet normal 0.994521 -0 0.104539
    outer loop
      vertex 2.93444 -16 31.1237
      vertex 3 -12.25 30.5
      vertex 2.93444 -12.25 31.1237
    endloop
  endfacet
  facet normal 0.994521 0 0.104539
    outer loop
      vertex 3 -12.25 30.5
      vertex 2.93444 -16 31.1237
      vertex 3 -16 30.5
    endloop
  endfacet
  facet normal 0.951063 -0 0.308996
    outer loop
      vertex 2.74064 -16 31.7202
      vertex 2.93444 -12.25 31.1237
      vertex 2.74064 -12.25 31.7202
    endloop
  endfacet
  facet normal 0.951063 0 0.308996
    outer loop
      vertex 2.93444 -12.25 31.1237
      vertex 2.74064 -16 31.7202
      vertex 2.93444 -16 31.1237
    endloop
  endfacet
  facet normal -0.207917 -3.34907e-19 0.978146
    outer loop
      vertex -0.927051 -12.25 33.3532
      vertex -0.313585 -16 33.4836
      vertex -0.313585 -12.25 33.4836
    endloop
  endfacet
  facet normal -0.207917 -3.34907e-19 0.978146
    outer loop
      vertex -0.313585 -16 33.4836
      vertex -0.927051 -12.25 33.3532
      vertex -0.927051 -16 33.3532
    endloop
  endfacet
  facet normal 0.406746 -2.70438e-18 -0.913542
    outer loop
      vertex 0.927051 -16 27.6468
      vertex 1.5 -12.25 27.9019
      vertex 1.5 -16 27.9019
    endloop
  endfacet
  facet normal 0.406746 -2.70438e-18 -0.913542
    outer loop
      vertex 1.5 -12.25 27.9019
      vertex 0.927051 -16 27.6468
      vertex 0.927051 -12.25 27.6468
    endloop
  endfacet
  facet normal 0.587847 -1.93932e-18 0.808972
    outer loop
      vertex 1.5 -12.25 33.0981
      vertex 2.00739 -16 32.7294
      vertex 2.00739 -12.25 32.7294
    endloop
  endfacet
  facet normal 0.587847 -1.93932e-18 0.808972
    outer loop
      vertex 2.00739 -16 32.7294
      vertex 1.5 -12.25 33.0981
      vertex 1.5 -16 33.0981
    endloop
  endfacet
  facet normal -0.743088 0 0.669194
    outer loop
      vertex -2.42705 -16 32.2634
      vertex -2.00739 -12.25 32.7294
      vertex -2.42705 -12.25 32.2634
    endloop
  endfacet
  facet normal -0.743088 0 0.669194
    outer loop
      vertex -2.00739 -12.25 32.7294
      vertex -2.42705 -16 32.2634
      vertex -2.00739 -16 32.7294
    endloop
  endfacet
  facet normal -0.406746 5.11434e-18 0.913542
    outer loop
      vertex -1.5 -12.25 33.0981
      vertex -0.927051 -16 33.3532
      vertex -0.927051 -12.25 33.3532
    endloop
  endfacet
  facet normal -0.406746 5.11434e-18 0.913542
    outer loop
      vertex -0.927051 -16 33.3532
      vertex -1.5 -12.25 33.0981
      vertex -1.5 -16 33.0981
    endloop
  endfacet
  facet normal 0.866044 -0 0.499968
    outer loop
      vertex 2.42705 -16 32.2634
      vertex 2.74064 -12.25 31.7202
      vertex 2.42705 -12.25 32.2634
    endloop
  endfacet
  facet normal 0.866044 0 0.499968
    outer loop
      vertex 2.74064 -12.25 31.7202
      vertex 2.42705 -16 32.2634
      vertex 2.74064 -16 31.7202
    endloop
  endfacet
  facet normal 0.207917 3.34907e-19 0.978146
    outer loop
      vertex 0.313585 -12.25 33.4836
      vertex 0.927051 -16 33.3532
      vertex 0.927051 -12.25 33.3532
    endloop
  endfacet
  facet normal 0.207917 3.34907e-19 0.978146
    outer loop
      vertex 0.927051 -16 33.3532
      vertex 0.313585 -12.25 33.4836
      vertex 0.313585 -16 33.4836
    endloop
  endfacet
  facet normal 0.406746 -5.11434e-18 0.913542
    outer loop
      vertex 0.927051 -12.25 33.3532
      vertex 1.5 -16 33.0981
      vertex 1.5 -12.25 33.0981
    endloop
  endfacet
  facet normal 0.406746 -5.11434e-18 0.913542
    outer loop
      vertex 1.5 -16 33.0981
      vertex 0.927051 -12.25 33.3532
      vertex 0.927051 -16 33.3532
    endloop
  endfacet
  facet normal -0.951063 0 0.308996
    outer loop
      vertex -2.93444 -16 31.1237
      vertex -2.74064 -12.25 31.7202
      vertex -2.93444 -12.25 31.1237
    endloop
  endfacet
  facet normal -0.951063 0 0.308996
    outer loop
      vertex -2.74064 -12.25 31.7202
      vertex -2.93444 -16 31.1237
      vertex -2.74064 -16 31.7202
    endloop
  endfacet
  facet normal -0.866044 0 0.499968
    outer loop
      vertex -2.74064 -16 31.7202
      vertex -2.42705 -12.25 32.2634
      vertex -2.74064 -12.25 31.7202
    endloop
  endfacet
  facet normal -0.866044 0 0.499968
    outer loop
      vertex -2.42705 -12.25 32.2634
      vertex -2.74064 -16 31.7202
      vertex -2.42705 -16 32.2634
    endloop
  endfacet
  facet normal 0 -1 0
    outer loop
      vertex -0.927051 -16 33.3532
      vertex 0.313585 -16 33.4836
      vertex -0.313585 -16 33.4836
    endloop
  endfacet
  facet normal 0 -1 0
    outer loop
      vertex -0.927051 -16 33.3532
      vertex 0.927051 -16 33.3532
      vertex 0.313585 -16 33.4836
    endloop
  endfacet
  facet normal 0 -1 0
    outer loop
      vertex -1.5 -16 33.0981
      vertex 0.927051 -16 33.3532
      vertex -0.927051 -16 33.3532
    endloop
  endfacet
  facet normal 0 -1 0
    outer loop
      vertex -1.5 -16 33.0981
      vertex 1.5 -16 33.0981
      vertex 0.927051 -16 33.3532
    endloop
  endfacet
  facet normal 0 -1 0
    outer loop
      vertex -2.00739 -16 32.7294
      vertex 1.5 -16 33.0981
      vertex -1.5 -16 33.0981
    endloop
  endfacet
  facet normal 0 -1 0
    outer loop
      vertex -2.00739 -16 32.7294
      vertex 2.00739 -16 32.7294
      vertex 1.5 -16 33.0981
    endloop
  endfacet
  facet normal 0 -1 0
    outer loop
      vertex -2.42705 -16 32.2634
      vertex 2.00739 -16 32.7294
      vertex -2.00739 -16 32.7294
    endloop
  endfacet
  facet normal 0 -1 0
    outer loop
      vertex -2.42705 -16 32.2634
      vertex 2.42705 -16 32.2634
      vertex 2.00739 -16 32.7294
    endloop
  endfacet
  facet normal 0 -1 0
    outer loop
      vertex -2.74064 -16 31.7202
      vertex 2.42705 -16 32.2634
      vertex -2.42705 -16 32.2634
    endloop
  endfacet
  facet normal 0 -1 0
    outer loop
      vertex -2.74064 -16 31.7202
      vertex 2.74064 -16 31.7202
      vertex 2.42705 -16 32.2634
    endloop
  endfacet
  facet normal 0 -1 0
    outer loop
      vertex -2.93444 -16 31.1237
      vertex 2.74064 -16 31.7202
      vertex -2.74064 -16 31.7202
    endloop
  endfacet
  facet normal 0 -1 0
    outer loop
      vertex -2.93444 -16 31.1237
      vertex 2.93444 -16 31.1237
      vertex 2.74064 -16 31.7202
    endloop
  endfacet
  facet normal 0 -1 0
    outer loop
      vertex -3 -16 30.5
      vertex 2.93444 -16 31.1237
      vertex -2.93444 -16 31.1237
    endloop
  endfacet
  facet normal 0 -1 0
    outer loop
      vertex -3 -16 30.5
      vertex 3 -16 30.5
      vertex 2.93444 -16 31.1237
    endloop
  endfacet
  facet normal 0 -1 0
    outer loop
      vertex -2.93444 -16 29.8763
      vertex 3 -16 30.5
      vertex -3 -16 30.5
    endloop
  endfacet
  facet normal 0 -1 0
    outer loop
      vertex -2.93444 -16 29.8763
      vertex 2.93444 -16 29.8763
      vertex 3 -16 30.5
    endloop
  endfacet
  facet normal 0 -1 0
    outer loop
      vertex -2.74064 -16 29.2798
      vertex 2.93444 -16 29.8763
      vertex -2.93444 -16 29.8763
    endloop
  endfacet
  facet normal 0 -1 0
    outer loop
      vertex -2.74064 -16 29.2798
      vertex 2.74064 -16 29.2798
      vertex 2.93444 -16 29.8763
    endloop
  endfacet
  facet normal 0 -1 0
    outer loop
      vertex -2.42705 -16 28.7366
      vertex 2.74064 -16 29.2798
      vertex -2.74064 -16 29.2798
    endloop
  endfacet
  facet normal 0 -1 0
    outer loop
      vertex -2.42705 -16 28.7366
      vertex 2.42705 -16 28.7366
      vertex 2.74064 -16 29.2798
    endloop
  endfacet
  facet normal 0 -1 0
    outer loop
      vertex -2.00739 -16 28.2706
      vertex 2.42705 -16 28.7366
      vertex -2.42705 -16 28.7366
    endloop
  endfacet
  facet normal 0 -1 0
    outer loop
      vertex -2.00739 -16 28.2706
      vertex 2.00739 -16 28.2706
      vertex 2.42705 -16 28.7366
    endloop
  endfacet
  facet normal 0 -1 0
    outer loop
      vertex -1.5 -16 27.9019
      vertex 2.00739 -16 28.2706
      vertex -2.00739 -16 28.2706
    endloop
  endfacet
  facet normal 0 -1 0
    outer loop
      vertex -1.5 -16 27.9019
      vertex 1.5 -16 27.9019
      vertex 2.00739 -16 28.2706
    endloop
  endfacet
  facet normal 0 -1 0
    outer loop
      vertex -0.927051 -16 27.6468
      vertex 1.5 -16 27.9019
      vertex -1.5 -16 27.9019
    endloop
  endfacet
  facet normal 0 -1 0
    outer loop
      vertex -0.927051 -16 27.6468
      vertex 0.927051 -16 27.6468
      vertex 1.5 -16 27.9019
    endloop
  endfacet
  facet normal 0 -1 0
    outer loop
      vertex -0.313585 -16 27.5164
      vertex 0.927051 -16 27.6468
      vertex -0.927051 -16 27.6468
    endloop
  endfacet
  facet normal 0 -1 0
    outer loop
      vertex 0.927051 -16 27.6468
      vertex -0.313585 -16 27.5164
      vertex 0.313585 -16 27.5164
    endloop
  endfacet
  facet normal 0.994521 0 -0.104539
    outer loop
      vertex 3 -16 30.5
      vertex 2.93444 -12.25 29.8763
      vertex 3 -12.25 30.5
    endloop
  endfacet
  facet normal 0.994521 0 -0.104539
    outer loop
      vertex 2.93444 -12.25 29.8763
      vertex 3 -16 30.5
      vertex 2.93444 -16 29.8763
    endloop
  endfacet
  facet normal 0.207917 -6.13986e-19 -0.978146
    outer loop
      vertex 0.313585 -16 27.5164
      vertex 0.927051 -12.25 27.6468
      vertex 0.927051 -16 27.6468
    endloop
  endfacet
  facet normal 0.207917 -6.13986e-19 -0.978146
    outer loop
      vertex 0.927051 -12.25 27.6468
      vertex 0.313585 -16 27.5164
      vertex 0.313585 -12.25 27.5164
    endloop
  endfacet
  facet normal 0.743088 -0 0.669194
    outer loop
      vertex 2.00739 -16 32.7294
      vertex 2.42705 -12.25 32.2634
      vertex 2.00739 -12.25 32.7294
    endloop
  endfacet
  facet normal 0.743088 0 0.669194
    outer loop
      vertex 2.42705 -12.25 32.2634
      vertex 2.00739 -16 32.7294
      vertex 2.42705 -16 32.2634
    endloop
  endfacet
  facet normal -0 0 1
    outer loop
      vertex -0.313585 -12.25 33.4836
      vertex 0.313585 -16 33.4836
      vertex 0.313585 -12.25 33.4836
    endloop
  endfacet
  facet normal 0 0 1
    outer loop
      vertex 0.313585 -16 33.4836
      vertex -0.313585 -12.25 33.4836
      vertex -0.313585 -16 33.4836
    endloop
  endfacet
  facet normal -0.994521 0 0.104539
    outer loop
      vertex -3 -16 30.5
      vertex -2.93444 -12.25 31.1237
      vertex -3 -12.25 30.5
    endloop
  endfacet
  facet normal -0.994521 0 0.104539
    outer loop
      vertex -2.93444 -12.25 31.1237
      vertex -3 -16 30.5
      vertex -2.93444 -16 31.1237
    endloop
  endfacet
  facet normal -0.994521 0 -0.104539
    outer loop
      vertex -2.93444 -16 29.8763
      vertex -3 -12.25 30.5
      vertex -2.93444 -12.25 29.8763
    endloop
  endfacet
  facet normal -0.994521 -0 -0.104539
    outer loop
      vertex -3 -12.25 30.5
      vertex -2.93444 -16 29.8763
      vertex -3 -16 30.5
    endloop
  endfacet
  facet normal -0.587847 1.93932e-18 0.808972
    outer loop
      vertex -2.00739 -12.25 32.7294
      vertex -1.5 -16 33.0981
      vertex -1.5 -12.25 33.0981
    endloop
  endfacet
  facet normal -0.587847 1.93932e-18 0.808972
    outer loop
      vertex -1.5 -16 33.0981
      vertex -2.00739 -12.25 32.7294
      vertex -2.00739 -16 32.7294
    endloop
  endfacet
  facet normal 0.587847 2.5775e-18 -0.808972
    outer loop
      vertex 1.5 -16 27.9019
      vertex 2.00739 -12.25 28.2706
      vertex 2.00739 -16 28.2706
    endloop
  endfacet
  facet normal 0.587847 2.5775e-18 -0.808972
    outer loop
      vertex 2.00739 -12.25 28.2706
      vertex 1.5 -16 27.9019
      vertex 1.5 -12.25 27.9019
    endloop
  endfacet
  facet normal -0.406746 2.70438e-18 -0.913542
    outer loop
      vertex -1.5 -16 27.9019
      vertex -0.927051 -12.25 27.6468
      vertex -0.927051 -16 27.6468
    endloop
  endfacet
  facet normal -0.406746 2.70438e-18 -0.913542
    outer loop
      vertex -0.927051 -12.25 27.6468
      vertex -1.5 -16 27.9019
      vertex -1.5 -12.25 27.9019
    endloop
  endfacet
  facet normal -0.743088 0 -0.669194
    outer loop
      vertex -2.00739 -16 28.2706
      vertex -2.42705 -12.25 28.7366
      vertex -2.00739 -12.25 28.2706
    endloop
  endfacet
  facet normal -0.743088 -0 -0.669194
    outer loop
      vertex -2.42705 -12.25 28.7366
      vertex -2.00739 -16 28.2706
      vertex -2.42705 -16 28.7366
    endloop
  endfacet
  facet normal -0.866044 0 -0.499968
    outer loop
      vertex -2.42705 -16 28.7366
      vertex -2.74064 -12.25 29.2798
      vertex -2.42705 -12.25 28.7366
    endloop
  endfacet
  facet normal -0.866044 -0 -0.499968
    outer loop
      vertex -2.74064 -12.25 29.2798
      vertex -2.42705 -16 28.7366
      vertex -2.74064 -16 29.2798
    endloop
  endfacet
  facet normal -0.587847 -2.5775e-18 -0.808972
    outer loop
      vertex -2.00739 -16 28.2706
      vertex -1.5 -12.25 27.9019
      vertex -1.5 -16 27.9019
    endloop
  endfacet
  facet normal -0.587847 -2.5775e-18 -0.808972
    outer loop
      vertex -1.5 -12.25 27.9019
      vertex -2.00739 -16 28.2706
      vertex -2.00739 -12.25 28.2706
    endloop
  endfacet
  facet normal -0.951063 0 -0.308996
    outer loop
      vertex -2.74064 -16 29.2798
      vertex -2.93444 -12.25 29.8763
      vertex -2.74064 -12.25 29.2798
    endloop
  endfacet
  facet normal -0.951063 -0 -0.308996
    outer loop
      vertex -2.93444 -12.25 29.8763
      vertex -2.74064 -16 29.2798
      vertex -2.93444 -16 29.8763
    endloop
  endfacet
  facet normal 0.866044 0 -0.499968
    outer loop
      vertex 2.74064 -16 29.2798
      vertex 2.42705 -12.25 28.7366
      vertex 2.74064 -12.25 29.2798
    endloop
  endfacet
  facet normal 0.866044 0 -0.499968
    outer loop
      vertex 2.42705 -12.25 28.7366
      vertex 2.74064 -16 29.2798
      vertex 2.42705 -16 28.7366
    endloop
  endfacet
  facet normal 0.951063 0 -0.308996
    outer loop
      vertex 2.93444 -16 29.8763
      vertex 2.74064 -12.25 29.2798
      vertex 2.93444 -12.25 29.8763
    endloop
  endfacet
  facet normal 0.951063 0 -0.308996
    outer loop
      vertex 2.74064 -12.25 29.2798
      vertex 2.93444 -16 29.8763
      vertex 2.74064 -16 29.2798
    endloop
  endfacet
  facet normal 0.743088 0 -0.669194
    outer loop
      vertex 2.42705 -16 28.7366
      vertex 2.00739 -12.25 28.2706
      vertex 2.42705 -12.25 28.7366
    endloop
  endfacet
  facet normal 0.743088 0 -0.669194
    outer loop
      vertex 2.00739 -12.25 28.2706
      vertex 2.42705 -16 28.7366
      vertex 2.00739 -16 28.2706
    endloop
  endfacet
  facet normal -0.207917 6.13986e-19 -0.978146
    outer loop
      vertex -0.927051 -16 27.6468
      vertex -0.313585 -12.25 27.5164
      vertex -0.313585 -16 27.5164
    endloop
  endfacet
  facet normal -0.207917 6.13986e-19 -0.978146
    outer loop
      vertex -0.313585 -12.25 27.5164
      vertex -0.927051 -16 27.6468
      vertex -0.927051 -12.25 27.6468
    endloop
  endfacet
  facet normal 0 0 -1
    outer loop
      vertex -0.313585 -16 27.5164
      vertex 0.313585 -12.25 27.5164
      vertex 0.313585 -16 27.5164
    endloop
  endfacet
  facet normal -0 0 -1
    outer loop
      vertex 0.313585 -12.25 27.5164
      vertex -0.313585 -16 27.5164
      vertex -0.313585 -12.25 27.5164
    endloop
  endfacet
endsolid OpenSCAD_Model
